<mxfile host="app.diagrams.net" agent="Mozilla/5.0 (Macintosh; Intel Mac OS X 10_15_7) AppleWebKit/537.36 (KHTML, like Gecko) Chrome/116.0.0.0 Safari/537.36" version="24.7.12">
  <diagram name="Page-1" id="xgvkq3mLrKqCHa_ZYQ-y">
    <mxGraphModel dx="1434" dy="799" grid="1" gridSize="10" guides="1" tooltips="1" connect="1" arrows="1" fold="1" page="1" pageScale="1" pageWidth="1169" pageHeight="827" math="1" shadow="0">
      <root>
        <mxCell id="0" />
        <mxCell id="1" parent="0" />
        <mxCell id="IJruppQfkDTt7Cz1XM8O-8" value="&lt;font style=&quot;font-size: 100px;&quot;&gt;&lt;font style=&quot;font-size: 100px;&quot; color=&quot;#a9c4eb&quot;&gt;A&lt;/font&gt;&lt;font style=&quot;font-size: 100px;&quot; color=&quot;#b9e0a5&quot;&gt;C&lt;/font&gt;&lt;/font&gt;&lt;font style=&quot;font-size: 160px;&quot; face=&quot;Times New Roman&quot; color=&quot;#f19c99&quot;&gt;T&lt;/font&gt;est" style="text;strokeColor=none;align=center;fillColor=none;html=1;verticalAlign=middle;whiteSpace=wrap;rounded=0;strokeWidth=50;fontSize=100;fontFamily=Tahoma;movable=1;resizable=1;rotatable=1;deletable=1;editable=1;locked=0;connectable=1;shadow=0;" parent="1" vertex="1">
          <mxGeometry x="402" y="477" width="250" height="30" as="geometry" />
        </mxCell>
        <mxCell id="2nQxuvaWzjD0Rw9vIOW6-12" value="" style="html=1;shadow=0;dashed=0;align=center;verticalAlign=middle;shape=mxgraph.arrows2.jumpInArrow;dy=10.5;dx=41;arrowHead=21;fillColor=#F19C99;gradientColor=#FFFFFF;gradientDirection=east;strokeColor=none;movable=1;resizable=1;rotatable=1;deletable=1;editable=1;locked=0;connectable=1;" parent="1" vertex="1">
          <mxGeometry x="520" y="368" width="141" height="48" as="geometry" />
        </mxCell>
        <mxCell id="LONuw8xTjrw8neGvQZyQ-1" value="" style="html=1;shadow=0;dashed=0;align=center;verticalAlign=middle;shape=mxgraph.arrows2.jumpInArrow;dy=10.5;dx=41;arrowHead=21;fillColor=#F19C99;gradientColor=#FFFFFF;gradientDirection=east;strokeColor=none;movable=1;resizable=1;rotatable=1;deletable=1;editable=1;locked=0;connectable=1;rotation=-180;flipV=1;" vertex="1" parent="1">
          <mxGeometry x="379" y="389" width="141" height="48" as="geometry" />
        </mxCell>
      </root>
    </mxGraphModel>
  </diagram>
</mxfile>
